<?xml version="1.0" standalone="no"?>
<!DOCTYPE svg PUBLIC "-//W3C//DTD SVG 20010904//EN"
 "http://www.w3.org/TR/2001/REC-SVG-20010904/DTD/svg10.dtd">
<svg version="1.0" xmlns="http://www.w3.org/2000/svg"
 width="1920.000000pt" height="720.000000pt" viewBox="0 0 1920.000000 720.000000"
 preserveAspectRatio="xMidYMid meet">

<g transform="translate(0.000000,720.000000) scale(0.100000,-0.100000)"
fill="#000000" stroke="none">
<path d="M0 3600 l0 -3600 9600 0 9600 0 0 3600 0 3600 -9600 0 -9600 0 0
-3600z m16792 1200 c541 -260 1204 -578 1473 -708 270 -129 506 -247 525 -262
65 -51 75 -79 75 -220 0 -187 -5 -193 -250 -311 -94 -44 -672 -321 -1285 -614
-613 -293 -1210 -578 -1326 -634 -218 -104 -260 -116 -296 -84 -16 15 -18 36
-18 257 0 221 2 244 20 273 25 42 36 49 266 159 1430 682 1984 949 1984 954 0
3 -483 237 -1072 519 -590 283 -1091 526 -1113 540 -22 15 -50 44 -62 66 -22
38 -23 50 -23 274 0 271 2 277 77 268 28 -3 363 -159 1025 -477z m-13238 454
c14 -13 16 -50 16 -247 0 -266 -7 -295 -77 -341 -21 -14 -405 -200 -853 -414
-1410 -673 -1352 -645 -1336 -654 9 -5 273 -132 588 -282 1389 -664 1603 -767
1626 -788 48 -44 52 -71 52 -316 0 -175 -3 -232 -13 -246 -31 -43 -70 -29
-552 202 -253 121 -921 441 -1485 710 -709 339 -1038 501 -1067 526 -52 45
-63 81 -63 201 0 107 12 156 48 196 19 21 361 189 1222 603 657 315 1330 639
1495 719 314 152 363 168 399 131z m3537 -1160 c26 -24 33 -67 15 -102 -17
-34 -33 -42 -82 -42 -79 0 -111 85 -54 142 27 26 36 30 67 25 19 -4 44 -14 54
-23z m1063 -20 l46 -7 0 -538 0 -539 -55 0 -54 0 -7 49 -6 50 -23 -28 c-13
-15 -47 -40 -77 -56 -45 -25 -64 -29 -123 -29 -40 0 -85 7 -106 16 -126 55
-187 198 -177 415 6 133 30 201 96 274 61 68 107 89 200 89 81 0 132 -17 175
-57 l27 -27 0 197 c0 222 -8 203 84 191z m-3704 -95 c225 -48 336 -237 316
-540 -10 -157 -54 -269 -135 -342 -90 -81 -185 -107 -403 -107 l-148 0 0 498
c0 274 3 502 8 507 10 11 295 -1 362 -16z m5074 -406 c72 -233 133 -423 137
-423 3 0 60 177 128 393 68 215 129 407 137 425 12 30 15 32 67 32 29 0 56 -3
59 -6 3 -3 -69 -230 -160 -505 l-167 -499 -67 0 -66 0 -166 498 c-91 273 -166
501 -166 505 0 4 30 7 66 5 l66 -3 132 -422z m-4111 168 c59 -29 102 -85 116
-152 6 -27 11 -147 11 -265 l0 -216 30 -28 c29 -27 29 -27 14 -68 -15 -38 -18
-40 -46 -31 -45 13 -76 36 -93 70 l-16 30 -27 -27 c-103 -104 -318 -106 -405
-3 -81 93 -77 234 9 316 58 56 142 82 292 90 l112 6 0 54 c0 30 -7 68 -16 84
-33 65 -156 87 -292 53 -35 -9 -67 -12 -72 -8 -11 14 -31 77 -25 82 3 3 36 14
73 24 101 27 270 21 335 -11z m5253 2 c53 -28 100 -82 113 -130 6 -21 11 -136
11 -261 0 -231 6 -271 45 -285 19 -8 19 -18 1 -62 -14 -33 -16 -34 -48 -23
-38 12 -98 65 -98 86 0 9 -14 2 -37 -18 -61 -54 -117 -74 -209 -74 -71 0 -86
3 -134 30 -74 42 -111 108 -112 198 -1 166 103 240 356 253 l118 6 -4 59 c-8
103 -63 148 -183 148 -38 0 -95 -7 -125 -15 -30 -8 -60 -15 -67 -15 -13 0 -40
76 -30 86 3 4 35 15 69 25 91 27 276 22 334 -8z m941 -7 c84 -38 88 -44 57
-90 -14 -20 -29 -36 -32 -34 -77 41 -114 53 -185 56 -42 2 -94 1 -113 -3 -48
-9 -84 -45 -84 -85 0 -67 29 -87 211 -144 189 -59 246 -118 237 -252 -3 -52
-9 -70 -34 -101 -108 -134 -408 -146 -564 -23 l-25 19 36 36 36 37 63 -34 c55
-29 75 -33 151 -36 109 -5 170 17 195 71 38 80 -8 142 -129 178 -202 58 -254
86 -288 156 -39 81 -9 187 67 234 64 39 112 49 229 46 96 -2 118 -6 172 -31z
m747 20 c18 -7 49 -28 68 -45 38 -33 48 -28 48 25 0 22 3 24 55 24 l55 0 0
-540 0 -541 -52 6 c-29 4 -59 8 -65 10 -10 3 -13 51 -13 196 l0 192 -21 -27
c-36 -46 -115 -79 -189 -80 -124 -2 -206 54 -249 170 -43 114 -43 324 -1 437
25 68 91 144 145 168 49 23 170 25 219 5z m1852 -22 c99 -61 154 -177 154
-325 l0 -79 -260 0 -259 0 5 -32 c18 -101 44 -149 102 -189 28 -19 51 -25 114
-28 70 -3 84 0 145 28 l67 32 18 -23 c41 -52 41 -55 -5 -82 -123 -73 -277 -82
-389 -25 -198 101 -247 471 -87 652 76 87 127 107 255 104 82 -3 97 -6 140
-33z m-8164 -294 c59 -173 108 -319 111 -325 2 -5 53 137 113 318 l109 327 63
0 c47 0 63 -3 60 -12 -3 -7 -65 -181 -139 -386 l-134 -372 -73 2 -74 3 -129
359 c-71 197 -132 369 -135 383 -6 24 -6 24 57 21 l64 -3 107 -315z m1088 -15
l0 -335 105 0 105 0 0 -50 0 -50 -285 0 -285 0 0 50 0 50 115 0 115 0 0 285 0
285 -115 0 -115 0 0 50 0 50 180 0 180 0 0 -335z m5862 28 c3 -279 5 -311 21
-335 52 -76 211 -53 291 43 l26 31 0 284 0 284 60 0 60 0 0 -385 0 -385 -49 0
c-54 0 -61 8 -61 67 l0 35 -46 -41 c-57 -50 -129 -75 -214 -75 -92 0 -146 30
-182 103 l-28 55 0 313 0 313 59 0 60 0 3 -307z m2208 260 c0 -47 -6 -56 -210
-330 -116 -155 -210 -285 -210 -288 0 -3 95 -5 210 -5 161 0 210 -3 210 -12 0
-7 -3 -30 -6 -50 l-7 -38 -283 0 -284 0 0 43 c0 41 12 60 215 330 l215 287
-195 0 -195 0 0 55 0 55 270 0 270 0 0 -47z"/>
<path d="M7855 3671 c-109 -26 -166 -156 -152 -345 7 -100 29 -164 68 -204 27
-27 81 -52 114 -52 38 0 95 28 136 67 l49 46 0 201 0 202 -32 31 c-49 47 -122
68 -183 54z"/>
<path d="M4210 3490 l0 -400 77 0 c42 0 104 8 137 17 79 22 143 83 177 169 21
53 23 75 24 219 0 192 -13 242 -85 316 -56 59 -118 79 -242 79 l-88 0 0 -400z"/>
<path d="M5175 3355 c-104 -37 -138 -166 -66 -247 24 -27 36 -32 88 -36 75 -5
118 8 172 54 l41 36 0 104 0 104 -97 0 c-58 -1 -114 -7 -138 -15z"/>
<path d="M10450 3363 c-88 -32 -120 -72 -120 -152 0 -97 45 -141 142 -141 64
0 121 25 166 70 32 33 32 35 32 132 l0 98 -102 -1 c-57 0 -110 -3 -118 -6z"/>
<path d="M12234 3670 c-51 -12 -90 -46 -115 -102 -22 -48 -24 -67 -24 -193 0
-110 4 -150 18 -186 25 -64 65 -100 121 -106 74 -9 114 4 167 54 l49 46 0 201
0 202 -32 31 c-49 47 -122 68 -184 53z"/>
<path d="M13965 3653 c-65 -34 -97 -82 -113 -171 l-9 -52 200 0 200 0 -6 56
c-7 70 -48 139 -97 165 -43 23 -133 24 -175 2z"/>
</g>
</svg>
