<?xml version="1.0" standalone="no"?>
<!DOCTYPE svg PUBLIC "-//W3C//DTD SVG 20010904//EN"
 "http://www.w3.org/TR/2001/REC-SVG-20010904/DTD/svg10.dtd">
<svg version="1.0" xmlns="http://www.w3.org/2000/svg"
 width="640.000000pt" height="130.000000pt" viewBox="0 0 640.000000 130.000000"
 preserveAspectRatio="xMidYMid meet">

<g transform="translate(0.000000,130.000000) scale(0.100000,-0.100000)"
fill="#000000" stroke="none">
<path d="M0 650 l0 -650 3200 0 3200 0 0 650 0 650 -3200 0 -3200 0 0 -650z
m636 311 c57 -26 108 -90 128 -160 21 -75 21 -204 -1 -270 -19 -61 -74 -128
-121 -148 -41 -17 -176 -33 -214 -26 l-28 5 0 293 c0 162 3 300 6 309 9 24
175 22 230 -3z m474 14 c0 -3 28 -135 61 -293 34 -158 62 -296 63 -307 1 -17
-6 -20 -45 -23 l-47 -3 -14 43 -15 43 -60 3 c-66 3 -62 6 -77 -60 -6 -26 -10
-28 -56 -28 -41 0 -50 3 -50 18 0 9 29 149 65 311 36 162 65 296 65 298 0 2
25 3 55 3 30 0 55 -2 55 -5z m329 -32 c6 -21 26 -110 46 -198 20 -88 38 -161
40 -164 7 -6 11 11 54 203 23 99 46 183 53 188 7 4 32 8 56 8 37 0 42 -3 42
-23 0 -19 -56 -247 -141 -569 -10 -38 -10 -38 -60 -38 -42 0 -51 3 -58 23 -20
53 -151 589 -146 598 4 5 28 9 55 9 48 0 49 -1 59 -37z m494 -267 c4 -165 5
-306 3 -313 -4 -9 -24 -13 -61 -13 l-55 0 0 308 c0 170 3 312 7 316 4 4 28 6
53 4 l45 -3 8 -299z m367 -221 l-175 -175 -45 45 -45 45 130 130 130 130 -130
130 -129 130 44 45 45 45 175 -175 175 -175 -175 -175z m977 513 c6 -7 27 -89
48 -183 20 -93 41 -178 45 -190 5 -14 15 13 35 100 48 213 63 268 77 276 22
14 88 10 94 -5 3 -8 -29 -149 -72 -315 l-77 -301 -49 0 c-44 0 -50 3 -59 28
-6 15 -43 152 -81 306 -58 228 -68 280 -57 287 21 13 85 11 96 -3z m691 -296
c35 -167 63 -305 60 -307 -2 -2 -23 -5 -47 -7 -43 -3 -44 -3 -58 40 l-15 42
-62 0 -62 0 -10 -41 c-9 -40 -10 -41 -57 -44 -26 -2 -49 0 -52 4 -2 4 7 57 21
117 14 60 43 192 65 294 22 102 42 191 44 198 3 9 21 12 57 10 l51 -3 65 -303z
m382 299 c31 -8 37 -39 15 -80 -13 -27 -18 -30 -36 -21 -34 19 -82 8 -96 -21
-20 -41 0 -80 77 -148 85 -76 114 -131 108 -205 -5 -63 -33 -107 -82 -130 -59
-28 -214 -16 -217 17 -2 21 3 50 12 75 l9 24 34 -21 c77 -48 159 -4 138 73 -4
15 -46 66 -94 114 -95 96 -108 126 -89 200 27 100 119 151 221 123z m475 -19
c78 -38 120 -105 135 -216 14 -97 -1 -191 -42 -274 l-31 -63 31 -32 c38 -39
39 -44 10 -74 -30 -32 -40 -29 -81 20 l-35 43 -59 -4 c-93 -7 -175 44 -213
132 -44 98 -44 279 -1 364 55 108 184 155 286 104z m335 -212 c3 -129 9 -243
14 -253 9 -19 48 -32 70 -24 8 3 23 18 33 33 16 25 18 56 21 250 l3 222 35 6
c19 4 43 2 55 -5 22 -11 22 -12 15 -253 -7 -211 -10 -246 -27 -283 -53 -111
-246 -111 -307 0 -15 27 -17 67 -20 281 -4 276 -6 267 63 263 l40 -3 5 -234z
m595 185 l0 -50 -72 -3 c-82 -3 -88 -10 -81 -88 l3 -39 70 0 70 0 0 -50 0 -50
-70 -5 -70 -5 -3 -77 -3 -78 69 0 c78 0 92 -9 92 -59 0 -61 -4 -62 -141 -59
l-124 3 -3 295 c-1 162 0 301 3 308 3 10 35 12 132 10 l128 -3 0 -50z m391 41
c3 -8 -9 -54 -26 -103 -69 -193 -130 -378 -130 -395 0 -15 12 -18 83 -20 l82
-3 0 -45 0 -45 -149 -3 c-82 -1 -153 1 -158 6 -5 5 30 122 77 260 47 139 85
255 85 257 0 3 -33 5 -74 5 l-74 0 -5 38 c-7 59 0 62 150 62 106 0 135 -3 139
-14z m-3066 -641 l0 -65 -295 0 -295 0 0 65 0 65 295 0 295 0 0 -65z"/>
<path d="M510 670 l0 -210 36 0 c80 0 132 105 121 241 -10 113 -59 179 -137
179 -19 0 -20 -6 -20 -210z"/>
<path d="M1042 675 c-6 -22 -14 -59 -18 -82 l-7 -43 37 0 37 0 -7 36 c-4 20
-12 57 -19 83 l-12 46 -11 -40z"/>
<path d="M3830 642 c-7 -37 -15 -73 -18 -79 -3 -9 7 -13 32 -13 28 0 36 4 36
18 0 21 -26 131 -32 137 -2 3 -10 -26 -18 -63z"/>
<path d="M4715 882 c-77 -15 -127 -155 -104 -287 17 -97 58 -145 124 -145 66
0 107 48 124 147 29 158 -45 305 -144 285z"/>
</g>
</svg>
