<?xml version="1.0" standalone="no"?>
<!DOCTYPE svg PUBLIC "-//W3C//DTD SVG 20010904//EN"
 "http://www.w3.org/TR/2001/REC-SVG-20010904/DTD/svg10.dtd">
<svg version="1.0" xmlns="http://www.w3.org/2000/svg"
 width="500.000000pt" height="500.000000pt" viewBox="0 0 500.000000 500.000000"
 preserveAspectRatio="xMidYMid meet">

<g transform="translate(0.000000,500.000000) scale(0.100000,-0.100000)"
fill="#000000" stroke="none">
<path d="M2275 4990 c-603 -65 -1128 -312 -1540 -725 -385 -386 -622 -856
-707 -1400 -31 -199 -31 -530 0 -730 85 -544 322 -1014 707 -1401 374 -376
850 -616 1395 -705 194 -32 546 -32 740 0 546 89 1017 327 1395 706 385 385
623 857 707 1400 31 199 31 531 0 730 -90 581 -367 1099 -794 1485 -306 276
-711 491 -1094 580 -239 56 -599 83 -809 60z m4 -1645 c424 -385 771 -704 771
-709 0 -5 -347 -358 -772 -783 l-772 -773 -68 67 c-37 37 -68 72 -68 78 0 5
314 324 697 707 432 432 694 701 688 706 -6 5 -318 290 -695 632 -377 343
-686 627 -688 632 -5 10 119 149 129 146 4 -2 354 -318 778 -703z m-1099 -850
l0 -1415 -100 0 -100 0 0 1415 0 1415 100 0 100 0 0 -1415z m3130 -1315 l0
-100 -1000 0 -1000 0 0 100 0 100 1000 0 1000 0 0 -100z"/>
</g>
</svg>
