<?xml version="1.0" standalone="no"?>
<!DOCTYPE svg PUBLIC "-//W3C//DTD SVG 20010904//EN"
 "http://www.w3.org/TR/2001/REC-SVG-20010904/DTD/svg10.dtd">
<svg version="1.0" xmlns="http://www.w3.org/2000/svg"
 width="500.000000pt" height="500.000000pt" viewBox="0 0 500.000000 500.000000"
 preserveAspectRatio="xMidYMid meet">

<g transform="translate(0.000000,500.000000) scale(0.100000,-0.100000)"
fill="#000000" stroke="none">
<path d="M0 2500 l0 -2500 2500 0 2500 0 0 2500 0 2500 -2500 0 -2500 0 0
-2500z m2279 845 c424 -385 771 -704 771 -709 0 -5 -347 -358 -772 -783 l-772
-773 -68 67 c-37 37 -68 72 -68 78 0 5 314 324 697 707 432 432 694 701 688
706 -6 5 -318 290 -695 632 -377 343 -686 627 -688 632 -5 10 119 149 129 146
4 -2 354 -318 778 -703z m-1099 -850 l0 -1415 -100 0 -100 0 0 1415 0 1415
100 0 100 0 0 -1415z m3130 -1315 l0 -100 -1000 0 -1000 0 0 100 0 100 1000 0
1000 0 0 -100z"/>
</g>
</svg>
